<?xml version="1.0" standalone="no"?><!DOCTYPE svg PUBLIC "-//W3C//DTD SVG 1.1//EN" "http://www.w3.org/Graphics/SVG/1.1/DTD/svg11.dtd"><svg t="1678594892684" class="icon" viewBox="0 0 1024 1024" version="1.1" xmlns="http://www.w3.org/2000/svg" p-id="14990" xmlns:xlink="http://www.w3.org/1999/xlink" width="200" height="200"><path d="M526.507012 717.049148l100.655961-566.563503c96.17129 0 126.567397 10.464234 130.553772 53.317761 0 0 64.280292-23.918248 97.167883-72.751338-126.567397-58.799027-254.131387-61.290511-254.131387-61.290511L526.507012 160.451582 452.260784 69.761557s-127.56399 2.491484-254.131387 61.290511C230.518691 179.885158 295.29728 203.803406 295.29728 203.803406c4.484672-42.853528 34.880779-53.317762 130.055474-53.816058l101.154258 567.0618z" fill="" p-id="14991"></path><path d="M526.507012 43.850122c102.649148-0.996594 219.748905 15.945499 339.838443 68.266666 15.945499-28.901217 19.931873-41.856934 19.931874-41.856934C755.225261 18.436983 632.145942 0.498297 526.008716 0 420.868083 0.498297 297.788764 18.436983 166.736696 70.259854c0 0 5.979562 15.945499 19.931874 41.856934C306.758107 59.297324 423.857864 42.853528 526.507012 43.850122z" fill="" p-id="14992"></path><path d="M115.910419 920.852555c2.491484 8.969343 9.965937 17.938686 20.928467 20.43017h32.389294l1.494891 0.498297v81.720681h19.931873V941.781022l1.993188-0.498297h32.389294c10.96253-2.989781 18.436983-11.460827 20.928467-20.43017H115.910419zM731.805309 1023.501703c9.965937-4.484672 15.447202-11.460827 17.44039-20.43017h-89.693431v-82.717275h-19.931874v103.147445h92.184915zM490.62964 940.784428h70.758151c10.464234-2.989781 19.433577-11.460827 21.925061-20.43017H470.697767V981.644769h92.184914v21.426764H490.62964c-11.460827 2.989781-20.928467 10.96253-25.911435 20.928467h118.09635V961.712895H490.62964v-20.928467zM792.099226 961.214599v62.287104h19.931874v-41.358637h72.751338v41.358637h19.931874v-62.287104zM315.72745 941.282725h76.737713c10.464234-1.993187 18.436983-11.460827 20.928467-20.43017H294.798983c1.993187 8.969343 9.965937 17.938686 20.928467 20.43017M315.72745 981.644769h76.737713c10.464234-1.993187 18.436983-11.460827 20.928467-20.43017H294.798983c1.993187 8.969343 9.965937 18.436983 20.928467 20.43017M315.72745 1023.501703h76.737713c10.464234-1.993187 18.436983-11.460827 20.928467-20.43017H294.798983c1.993187 8.969343 9.965937 18.436983 20.928467 20.43017M810.037913 941.282725h76.737713c10.464234-1.993187 18.436983-11.460827 20.928467-20.43017h-118.594648c1.993187 8.969343 9.965937 18.436983 20.928468 20.43017" fill="" p-id="14993"></path></svg>